<svg width="1255" height="360" viewBox="0 0 1255 360" fill="none" xmlns="http://www.w3.org/2000/svg">
<g opacity="0.3" filter="url(#filter0_d_496_2538)">
<path d="M913.199 78.9204V3.33691L1134.98 3.88862C1201.06 11.603 1241.59 58.3959 1243.03 124.16C1241.24 177.784 1217.12 221.951 1167.53 238.915L1250.84 340.98H1167.53L1097.47 251.052H979.955V340.98H913.199V183.744H1108.5C1136.9 179.049 1157.53 159.743 1157 129C1155.02 102.511 1136.26 81.3267 1108.5 78.9204H913.199Z" fill="white"/>
<path d="M798.982 349.781L784.086 331.574C834.096 271.378 856.661 219.758 851.497 164.96C851.567 115.338 832.268 64.855 784.086 20.4131L798.982 0C850.865 41.4128 877.495 96.2865 880.559 164.96C884.957 229.598 857.169 287.225 798.982 349.781Z" fill="white"/>
<path d="M101.652 3.84961H4L186.062 211.29V343.148H258.336V211.29L435.984 3.84961H343.298L221.923 144.534L101.652 3.84961Z" fill="white"/>
<path fill-rule="evenodd" clip-rule="evenodd" d="M626.878 341.301C732.303 341.301 817.768 265.772 817.768 172.602C817.768 79.4318 732.303 3.90259 626.878 3.90259C521.452 3.90259 435.988 79.4318 435.988 172.602C435.988 265.772 521.452 341.301 626.878 341.301ZM626.327 279.198C694.275 279.198 749.357 232.682 749.357 175.301C749.357 117.92 694.275 71.4038 626.327 71.4038C558.379 71.4038 503.297 117.92 503.297 175.301C503.297 232.682 558.379 279.198 626.327 279.198Z" fill="white"/>
</g>
<g filter="url(#filter1_f_496_2538)">
<path d="M529.553 95.9421L625.758 288.409L721.963 95.9421H529.553Z" stroke="white" stroke-width="5"/>
</g>
<g filter="url(#filter2_f_496_2538)">
<path d="M529.553 92.3527L625.758 284.819L721.963 92.3527H529.553Z" stroke="white" stroke-width="5"/>
</g>
<g filter="url(#filter3_f_496_2538)">
<path d="M413.933 90V75.8398L402.531 54.4531H405.51L414.055 70.9326C414.299 71.4046 414.51 71.8197 414.689 72.1777C414.868 72.5358 415.048 72.9264 415.227 73.3496H415.349C415.528 72.9264 415.699 72.5358 415.861 72.1777C416.04 71.8197 416.252 71.4046 416.496 70.9326L425.09 54.4531H427.971L416.569 75.8398V90H413.933ZM429.997 73.0322V71.3232C429.997 65.3499 431.218 60.9473 433.659 58.1152C436.117 55.2832 439.307 53.8672 443.229 53.8672C447.152 53.8672 450.334 55.2832 452.775 58.1152C455.233 60.9473 456.462 65.3499 456.462 71.3232V73.0322C456.462 79.0869 455.233 83.5303 452.775 86.3623C450.334 89.1781 447.152 90.5859 443.229 90.5859C439.307 90.5859 436.117 89.1781 433.659 86.3623C431.218 83.5303 429.997 79.0869 429.997 73.0322ZM432.683 73.1299C432.683 78.3708 433.635 82.2038 435.539 84.6289C437.46 87.0378 440.015 88.2422 443.205 88.2422C446.411 88.2422 448.975 87.0378 450.896 84.6289C452.816 82.2201 453.776 78.387 453.776 73.1299V71.25C453.776 66.0579 452.816 62.2575 450.896 59.8486C448.975 57.4235 446.42 56.2109 443.229 56.2109C440.023 56.2109 437.46 57.4235 435.539 59.8486C433.635 62.2575 432.683 66.0579 432.683 71.25V73.1299ZM462.199 78.3057V54.4531H464.836V78.3545C464.836 81.805 465.601 84.3197 467.131 85.8984C468.661 87.4609 470.752 88.2422 473.405 88.2422C476.042 88.2422 478.117 87.4609 479.631 85.8984C481.145 84.3197 481.901 81.805 481.901 78.3545V54.4531H484.562V78.3057C484.562 82.4886 483.545 85.5811 481.511 87.583C479.493 89.585 476.783 90.5859 473.381 90.5859C470.012 90.5859 467.302 89.585 465.251 87.583C463.216 85.5811 462.199 82.4886 462.199 78.3057ZM491.545 90V54.4531H501.262C504.663 54.4531 507.235 55.3727 508.977 57.2119C510.734 59.0511 511.613 61.4844 511.613 64.5117C511.613 67.5391 510.743 69.9886 509.001 71.8604C507.276 73.7321 504.696 74.668 501.262 74.668H494.182V90H491.545ZM494.182 72.4219H501.262C504.077 72.4219 506.063 71.6813 507.219 70.2002C508.391 68.7191 508.977 66.8229 508.977 64.5117C508.977 62.2005 508.382 60.3288 507.194 58.8965C506.022 57.4642 504.045 56.7399 501.262 56.7236H494.182V72.4219ZM510.173 90L501.579 73.5205L504.338 73.252L513.176 90H510.173Z" fill="white"/>
</g>
<path d="M413.933 91V76.8398L402.531 55.4531H405.51L414.055 71.9326C414.299 72.4046 414.51 72.8197 414.689 73.1777C414.868 73.5358 415.048 73.9264 415.227 74.3496H415.349C415.528 73.9264 415.699 73.5358 415.861 73.1777C416.04 72.8197 416.252 72.4046 416.496 71.9326L425.09 55.4531H427.971L416.569 76.8398V91H413.933ZM429.997 74.0322V72.3232C429.997 66.3499 431.218 61.9473 433.659 59.1152C436.117 56.2832 439.307 54.8672 443.229 54.8672C447.152 54.8672 450.334 56.2832 452.775 59.1152C455.233 61.9473 456.462 66.3499 456.462 72.3232V74.0322C456.462 80.0869 455.233 84.5303 452.775 87.3623C450.334 90.1781 447.152 91.5859 443.229 91.5859C439.307 91.5859 436.117 90.1781 433.659 87.3623C431.218 84.5303 429.997 80.0869 429.997 74.0322ZM432.683 74.1299C432.683 79.3708 433.635 83.2038 435.539 85.6289C437.46 88.0378 440.015 89.2422 443.205 89.2422C446.411 89.2422 448.975 88.0378 450.896 85.6289C452.816 83.2201 453.776 79.387 453.776 74.1299V72.25C453.776 67.0579 452.816 63.2575 450.896 60.8486C448.975 58.4235 446.42 57.2109 443.229 57.2109C440.023 57.2109 437.46 58.4235 435.539 60.8486C433.635 63.2575 432.683 67.0579 432.683 72.25V74.1299ZM462.199 79.3057V55.4531H464.836V79.3545C464.836 82.805 465.601 85.3197 467.131 86.8984C468.661 88.4609 470.752 89.2422 473.405 89.2422C476.042 89.2422 478.117 88.4609 479.631 86.8984C481.145 85.3197 481.901 82.805 481.901 79.3545V55.4531H484.562V79.3057C484.562 83.4886 483.545 86.5811 481.511 88.583C479.493 90.585 476.783 91.5859 473.381 91.5859C470.012 91.5859 467.302 90.585 465.251 88.583C463.216 86.5811 462.199 83.4886 462.199 79.3057ZM491.545 91V55.4531H501.262C504.663 55.4531 507.235 56.3727 508.977 58.2119C510.734 60.0511 511.613 62.4844 511.613 65.5117C511.613 68.5391 510.743 70.9886 509.001 72.8604C507.276 74.7321 504.696 75.668 501.262 75.668H494.182V91H491.545ZM494.182 73.4219H501.262C504.077 73.4219 506.063 72.6813 507.219 71.2002C508.391 69.7191 508.977 67.8229 508.977 65.5117C508.977 63.2005 508.382 61.3288 507.194 59.8965C506.022 58.4642 504.045 57.7399 501.262 57.7236H494.182V73.4219ZM510.173 91L501.579 74.5205L504.338 74.252L513.176 91H510.173Z" fill="white"/>
<g filter="url(#filter4_f_496_2538)">
<path d="M732.696 72.0322V70.3232C732.696 64.3499 733.917 59.9473 736.358 57.1152C738.816 54.2832 742.006 52.8672 745.929 52.8672C749.851 52.8672 753.033 54.2832 755.475 57.1152C757.932 59.9473 759.161 64.3499 759.161 70.3232V72.0322C759.161 78.0869 757.932 82.5303 755.475 85.3623C753.033 88.1781 749.851 89.5859 745.929 89.5859C742.006 89.5859 738.816 88.1781 736.358 85.3623C733.917 82.5303 732.696 78.0869 732.696 72.0322ZM735.382 72.1299C735.382 77.3708 736.334 81.2038 738.238 83.6289C740.159 86.0378 742.714 87.2422 745.904 87.2422C749.111 87.2422 751.674 86.0378 753.595 83.6289C755.515 81.2201 756.476 77.387 756.476 72.1299V70.25C756.476 65.0579 755.515 61.2575 753.595 58.8486C751.674 56.4235 749.119 55.2109 745.929 55.2109C742.722 55.2109 740.159 56.4235 738.238 58.8486C736.334 61.2575 735.382 65.0579 735.382 70.25V72.1299ZM770.929 89.1953L762.579 53.4531H765.265L771.93 82.8232C772.011 83.2301 772.084 83.6289 772.149 84.0195C772.231 84.4102 772.312 84.8822 772.394 85.4355H772.54C772.621 84.8822 772.695 84.4102 772.76 84.0195C772.841 83.6289 772.939 83.2301 773.053 82.8232L780.328 53.4531H783.331L790.704 82.8232C790.802 83.2301 790.883 83.6289 790.948 84.0195C791.03 84.4102 791.111 84.8903 791.192 85.46H791.339C791.42 84.8903 791.493 84.4102 791.559 84.0195C791.624 83.6126 791.705 83.2057 791.803 82.7988L798.395 53.4531H800.934L792.584 89.2197H789.825L782.403 59.5811C782.306 59.1904 782.2 58.7428 782.086 58.2383C781.988 57.7174 781.899 57.1885 781.817 56.6514H781.695C781.598 57.1885 781.492 57.7174 781.378 58.2383C781.28 58.7428 781.183 59.1904 781.085 59.5811L773.688 89.1953H770.929ZM805.621 89V53.4531H808.526L825.274 82.5303C825.519 82.9535 825.738 83.3685 825.934 83.7754C826.129 84.1823 826.3 84.5729 826.446 84.9473H826.568C826.552 84.5241 826.536 84.0846 826.52 83.6289C826.52 83.1569 826.52 82.7093 826.52 82.2861V53.4531H829.034V89H826.178L809.381 59.8496C809.153 59.4427 808.933 59.0277 808.722 58.6045C808.51 58.1813 808.331 57.7826 808.185 57.4082H808.062C808.095 57.8314 808.111 58.3034 808.111 58.8242C808.128 59.3288 808.136 59.8008 808.136 60.2402V89H805.621Z" fill="white"/>
</g>
<path d="M732.696 73.0322V71.3232C732.696 65.3499 733.917 60.9473 736.358 58.1152C738.816 55.2832 742.006 53.8672 745.929 53.8672C749.851 53.8672 753.033 55.2832 755.475 58.1152C757.932 60.9473 759.161 65.3499 759.161 71.3232V73.0322C759.161 79.0869 757.932 83.5303 755.475 86.3623C753.033 89.1781 749.851 90.5859 745.929 90.5859C742.006 90.5859 738.816 89.1781 736.358 86.3623C733.917 83.5303 732.696 79.0869 732.696 73.0322ZM735.382 73.1299C735.382 78.3708 736.334 82.2038 738.238 84.6289C740.159 87.0378 742.714 88.2422 745.904 88.2422C749.111 88.2422 751.674 87.0378 753.595 84.6289C755.515 82.2201 756.476 78.387 756.476 73.1299V71.25C756.476 66.0579 755.515 62.2575 753.595 59.8486C751.674 57.4235 749.119 56.2109 745.929 56.2109C742.722 56.2109 740.159 57.4235 738.238 59.8486C736.334 62.2575 735.382 66.0579 735.382 71.25V73.1299ZM770.929 90.1953L762.579 54.4531H765.265L771.93 83.8232C772.011 84.2301 772.084 84.6289 772.149 85.0195C772.231 85.4102 772.312 85.8822 772.394 86.4355H772.54C772.621 85.8822 772.695 85.4102 772.76 85.0195C772.841 84.6289 772.939 84.2301 773.053 83.8232L780.328 54.4531H783.331L790.704 83.8232C790.802 84.2301 790.883 84.6289 790.948 85.0195C791.03 85.4102 791.111 85.8903 791.192 86.46H791.339C791.42 85.8903 791.493 85.4102 791.559 85.0195C791.624 84.6126 791.705 84.2057 791.803 83.7988L798.395 54.4531H800.934L792.584 90.2197H789.825L782.403 60.5811C782.306 60.1904 782.2 59.7428 782.086 59.2383C781.988 58.7174 781.899 58.1885 781.817 57.6514H781.695C781.598 58.1885 781.492 58.7174 781.378 59.2383C781.28 59.7428 781.183 60.1904 781.085 60.5811L773.688 90.1953H770.929ZM805.621 90V54.4531H808.526L825.274 83.5303C825.519 83.9535 825.738 84.3685 825.934 84.7754C826.129 85.1823 826.3 85.5729 826.446 85.9473H826.568C826.552 85.5241 826.536 85.0846 826.52 84.6289C826.52 84.1569 826.52 83.7093 826.52 83.2861V54.4531H829.034V90H826.178L809.381 60.8496C809.153 60.4427 808.933 60.0277 808.722 59.6045C808.51 59.1813 808.331 58.7826 808.185 58.4082H808.062C808.095 58.8314 808.111 59.3034 808.111 59.8242C808.128 60.3288 808.136 60.8008 808.136 61.2402V90H805.621Z" fill="white"/>
<g filter="url(#filter5_f_496_2538)">
<path d="M549.681 348V312.453H559.397C562.799 312.453 565.371 313.373 567.112 315.212C568.87 317.051 569.749 319.484 569.749 322.512C569.749 325.539 568.878 327.989 567.137 329.86C565.411 331.732 562.832 332.668 559.397 332.668H552.317V348H549.681ZM552.317 330.422H559.397C562.213 330.422 564.199 329.681 565.354 328.2C566.526 326.719 567.112 324.823 567.112 322.512C567.112 320.201 566.518 318.329 565.33 316.896C564.158 315.464 562.181 314.74 559.397 314.724H552.317V330.422ZM568.309 348L559.715 331.521L562.474 331.252L571.312 348H568.309ZM575.657 348V312.453H594.773V314.748H578.294V328.493H592.405V330.788H578.294V345.705H595.018V348H575.657ZM596.238 348L608.323 312.282H611.351L623.436 348H620.701L610.789 318.19C610.577 317.556 610.398 317.019 610.252 316.579C610.122 316.123 609.975 315.611 609.812 315.041H609.69C609.544 315.611 609.389 316.132 609.227 316.604C609.08 317.059 608.909 317.588 608.714 318.19L598.851 348H596.238ZM600.877 337.868L601.658 335.671H617.967L618.724 337.868H600.877ZM627.024 348V312.453H629.661V345.705H645.481V348H627.024ZM650.047 348V312.453H652.684V348H650.047ZM656.688 314.748V312.453H681.199V314.748H670.262V348H667.625V314.748H656.688ZM693.504 348V333.84L682.103 312.453H685.081L693.626 328.933C693.87 329.405 694.082 329.82 694.261 330.178C694.44 330.536 694.619 330.926 694.798 331.35H694.92C695.099 330.926 695.27 330.536 695.433 330.178C695.612 329.82 695.823 329.405 696.067 328.933L704.661 312.453H707.542L696.141 333.84V348H693.504Z" fill="white"/>
</g>
<path d="M549.681 347V311.453H559.397C562.799 311.453 565.371 312.373 567.112 314.212C568.87 316.051 569.749 318.484 569.749 321.512C569.749 324.539 568.878 326.989 567.137 328.86C565.411 330.732 562.832 331.668 559.397 331.668H552.317V347H549.681ZM552.317 329.422H559.397C562.213 329.422 564.199 328.681 565.354 327.2C566.526 325.719 567.112 323.823 567.112 321.512C567.112 319.201 566.518 317.329 565.33 315.896C564.158 314.464 562.181 313.74 559.397 313.724H552.317V329.422ZM568.309 347L559.715 330.521L562.474 330.252L571.312 347H568.309ZM575.657 347V311.453H594.773V313.748H578.294V327.493H592.405V329.788H578.294V344.705H595.018V347H575.657ZM596.238 347L608.323 311.282H611.351L623.436 347H620.701L610.789 317.19C610.577 316.556 610.398 316.019 610.252 315.579C610.122 315.123 609.975 314.611 609.812 314.041H609.69C609.544 314.611 609.389 315.132 609.227 315.604C609.08 316.059 608.909 316.588 608.714 317.19L598.851 347H596.238ZM600.877 336.868L601.658 334.671H617.967L618.724 336.868H600.877ZM627.024 347V311.453H629.661V344.705H645.481V347H627.024ZM650.047 347V311.453H652.684V347H650.047ZM656.688 313.748V311.453H681.199V313.748H670.262V347H667.625V313.748H656.688ZM693.504 347V332.84L682.103 311.453H685.081L693.626 327.933C693.87 328.405 694.082 328.82 694.261 329.178C694.44 329.536 694.619 329.926 694.798 330.35H694.92C695.099 329.926 695.27 329.536 695.433 329.178C695.612 328.82 695.823 328.405 696.067 327.933L704.661 311.453H707.542L696.141 332.84V347H693.504Z" fill="white"/>
<defs>
<filter id="filter0_d_496_2538" x="0" y="0" width="1254.84" height="357.781" filterUnits="userSpaceOnUse" color-interpolation-filters="sRGB">
<feFlood flood-opacity="0" result="BackgroundImageFix"/>
<feColorMatrix in="SourceAlpha" type="matrix" values="0 0 0 0 0 0 0 0 0 0 0 0 0 0 0 0 0 0 127 0" result="hardAlpha"/>
<feOffset dy="4"/>
<feGaussianBlur stdDeviation="2"/>
<feComposite in2="hardAlpha" operator="out"/>
<feColorMatrix type="matrix" values="0 0 0 0 0 0 0 0 0 0 0 0 0 0 0 0 0 0 0.25 0"/>
<feBlend mode="normal" in2="BackgroundImageFix" result="effect1_dropShadow_496_2538"/>
<feBlend mode="normal" in="SourceGraphic" in2="effect1_dropShadow_496_2538" result="shape"/>
</filter>
<filter id="filter1_f_496_2538" x="524.508" y="92.4421" width="202.5" height="202.558" filterUnits="userSpaceOnUse" color-interpolation-filters="sRGB">
<feFlood flood-opacity="0" result="BackgroundImageFix"/>
<feBlend mode="normal" in="SourceGraphic" in2="BackgroundImageFix" result="shape"/>
<feGaussianBlur stdDeviation="0.5" result="effect1_foregroundBlur_496_2538"/>
</filter>
<filter id="filter2_f_496_2538" x="505.508" y="69.8528" width="240.5" height="240.558" filterUnits="userSpaceOnUse" color-interpolation-filters="sRGB">
<feFlood flood-opacity="0" result="BackgroundImageFix"/>
<feBlend mode="normal" in="SourceGraphic" in2="BackgroundImageFix" result="shape"/>
<feGaussianBlur stdDeviation="10" result="effect1_foregroundBlur_496_2538"/>
</filter>
<filter id="filter3_f_496_2538" x="398.531" y="49.8672" width="118.645" height="44.7188" filterUnits="userSpaceOnUse" color-interpolation-filters="sRGB">
<feFlood flood-opacity="0" result="BackgroundImageFix"/>
<feBlend mode="normal" in="SourceGraphic" in2="BackgroundImageFix" result="shape"/>
<feGaussianBlur stdDeviation="2" result="effect1_foregroundBlur_496_2538"/>
</filter>
<filter id="filter4_f_496_2538" x="728.695" y="48.8672" width="104.34" height="44.7188" filterUnits="userSpaceOnUse" color-interpolation-filters="sRGB">
<feFlood flood-opacity="0" result="BackgroundImageFix"/>
<feBlend mode="normal" in="SourceGraphic" in2="BackgroundImageFix" result="shape"/>
<feGaussianBlur stdDeviation="2" result="effect1_foregroundBlur_496_2538"/>
</filter>
<filter id="filter5_f_496_2538" x="545.68" y="308.282" width="165.863" height="43.7178" filterUnits="userSpaceOnUse" color-interpolation-filters="sRGB">
<feFlood flood-opacity="0" result="BackgroundImageFix"/>
<feBlend mode="normal" in="SourceGraphic" in2="BackgroundImageFix" result="shape"/>
<feGaussianBlur stdDeviation="2" result="effect1_foregroundBlur_496_2538"/>
</filter>
</defs>
</svg>
